<svg xmlns="http://www.w3.org/2000/svg" viewBox="0 0 64 64">
  <circle cx="40.19" cy="35.41" r="2.1" fill="#f472b6" opacity="0.35"/>
  <circle cx="29.96" cy="37.79" r="2.1" fill="#f472b6" opacity="0.40"/>
  <circle cx="40.19" cy="25.64" r="2.1" fill="#f472b6" opacity="0.42"/>
  <circle cx="19.74" cy="40.18" r="2.1" fill="#f472b6" opacity="0.45"/>
  <circle cx="44.95" cy="40.52" r="2.1" fill="#f472b6" opacity="0.45"/>
  <circle cx="29.96" cy="28.02" r="2.1" fill="#f472b6" opacity="0.46"/>
  <circle cx="40.19" cy="15.87" r="2.1" fill="#f472b6" opacity="0.48"/>
  <circle cx="9.51" cy="42.56" r="2.1" fill="#f472b6" opacity="0.49"/>
  <circle cx="34.73" cy="42.91" r="2.1" fill="#f472b6" opacity="0.50"/>
  <circle cx="19.74" cy="30.41" r="2.1" fill="#f472b6" opacity="0.51"/>
  <circle cx="44.95" cy="30.75" r="2.1" fill="#f472b6" opacity="0.52"/>
  <circle cx="29.96" cy="18.25" r="2.1" fill="#f472b6" opacity="0.53"/>
  <circle cx="40.19" cy="6.10" r="2.1" fill="#f472b6" opacity="0.55"/>
  <circle cx="24.50" cy="45.29" r="2.1" fill="#f472b6" opacity="0.55"/>
  <circle cx="49.72" cy="45.64" r="2.1" fill="#f472b6" opacity="0.56"/>
  <circle cx="9.51" cy="32.79" r="2.1" fill="#f472b6" opacity="0.56"/>
  <circle cx="34.73" cy="33.14" r="2.1" fill="#f472b6" opacity="0.57"/>
  <circle cx="19.74" cy="20.64" r="2.1" fill="#f472b6" opacity="0.58"/>
  <circle cx="44.95" cy="20.98" r="2.1" fill="#f472b6" opacity="0.58"/>
  <circle cx="29.96" cy="8.48" r="2.1" fill="#f472b6" opacity="0.59"/>
  <circle cx="14.28" cy="47.68" r="2.1" fill="#f472b6" opacity="0.60"/>
  <circle cx="39.50" cy="48.02" r="2.1" fill="#f472b6" opacity="0.60"/>
  <circle cx="24.50" cy="35.52" r="2.1" fill="#f472b6" opacity="0.61"/>
  <circle cx="49.72" cy="35.87" r="2.1" fill="#f472b6" opacity="0.62"/>
  <circle cx="9.51" cy="23.02" r="2.1" fill="#f472b6" opacity="0.63"/>
  <circle cx="34.73" cy="23.37" r="2.1" fill="#f472b6" opacity="0.63"/>
  <circle cx="19.74" cy="10.87" r="2.1" fill="#f472b6" opacity="0.64"/>
  <circle cx="44.95" cy="11.21" r="2.1" fill="#f472b6" opacity="0.65"/>
  <circle cx="29.27" cy="50.40" r="2.1" fill="#f472b6" opacity="0.65"/>
  <circle cx="54.49" cy="50.75" r="2.1" fill="#f472b6" opacity="0.66"/>
  <circle cx="14.28" cy="37.90" r="2.1" fill="#f472b6" opacity="0.66"/>
  <circle cx="39.50" cy="38.25" r="2.1" fill="#f472b6" opacity="0.67"/>
  <circle cx="24.50" cy="25.75" r="2.1" fill="#f472b6" opacity="0.68"/>
  <circle cx="49.72" cy="26.10" r="2.1" fill="#f472b6" opacity="0.69"/>
  <circle cx="9.51" cy="13.25" r="2.1" fill="#f472b6" opacity="0.69"/>
  <circle cx="34.73" cy="13.60" r="2.1" fill="#f472b6" opacity="0.70"/>
  <circle cx="19.05" cy="52.79" r="2.1" fill="#f472b6" opacity="0.70"/>
  <circle cx="44.26" cy="53.13" r="2.1" fill="#f472b6" opacity="0.71"/>
  <circle cx="29.27" cy="40.63" r="2.1" fill="#f472b6" opacity="0.72"/>
  <circle cx="54.49" cy="40.98" r="2.1" fill="#f472b6" opacity="0.72"/>
  <circle cx="14.28" cy="28.13" r="2.1" fill="#f472b6" opacity="0.73"/>
  <circle cx="39.50" cy="28.48" r="2.1" fill="#f472b6" opacity="0.74"/>
  <circle cx="24.50" cy="15.98" r="2.1" fill="#f472b6" opacity="0.75"/>
  <circle cx="49.72" cy="16.32" r="2.1" fill="#f472b6" opacity="0.75"/>
  <circle cx="34.04" cy="55.52" r="2.1" fill="#f472b6" opacity="0.76"/>
  <circle cx="19.05" cy="43.02" r="2.1" fill="#f472b6" opacity="0.77"/>
  <circle cx="44.26" cy="43.36" r="2.1" fill="#f472b6" opacity="0.77"/>
  <circle cx="29.27" cy="30.86" r="2.1" fill="#f472b6" opacity="0.78"/>
  <circle cx="54.49" cy="31.21" r="2.1" fill="#f472b6" opacity="0.79"/>
  <circle cx="14.28" cy="18.36" r="2.1" fill="#f472b6" opacity="0.79"/>
  <circle cx="39.50" cy="18.71" r="2.1" fill="#f472b6" opacity="0.80"/>
  <circle cx="23.81" cy="57.90" r="2.1" fill="#f472b6" opacity="0.80"/>
  <circle cx="34.04" cy="45.75" r="2.1" fill="#f472b6" opacity="0.82"/>
  <circle cx="19.05" cy="33.25" r="2.1" fill="#f472b6" opacity="0.83"/>
  <circle cx="44.26" cy="33.59" r="2.1" fill="#f472b6" opacity="0.84"/>
  <circle cx="29.27" cy="21.09" r="2.1" fill="#f472b6" opacity="0.85"/>
  <circle cx="54.49" cy="21.44" r="2.1" fill="#f472b6" opacity="0.86"/>
  <circle cx="23.81" cy="48.13" r="2.1" fill="#f472b6" opacity="0.87"/>
  <circle cx="34.04" cy="35.98" r="2.1" fill="#f472b6" opacity="0.89"/>
  <circle cx="19.05" cy="23.48" r="2.1" fill="#f472b6" opacity="0.90"/>
  <circle cx="44.26" cy="23.82" r="2.1" fill="#f472b6" opacity="0.90"/>
  <circle cx="23.81" cy="38.36" r="2.1" fill="#f472b6" opacity="0.93"/>
  <circle cx="34.04" cy="26.21" r="2.1" fill="#f472b6" opacity="0.95"/>
  <circle cx="23.81" cy="28.59" r="2.1" fill="#f472b6" opacity="1.00"/>
</svg>
